<?xml version="1.0" encoding="UTF-8"?>
<svg version="1.1" xmlns="http://www.w3.org/2000/svg" width="625" height="131">
<path d="M0 0 C206.25 0 412.5 0 625 0 C625 43.23 625 86.46 625 131 C418.75 131 212.5 131 0 131 C0 87.77 0 44.54 0 0 Z " fill="#FDFDFE" transform="translate(0,0)"/>
<path d="M0 0 C1.26972656 -0.00257812 2.53945313 -0.00515625 3.84765625 -0.0078125 C6.9375 0.125 6.9375 0.125 7.9375 1.125 C8.00976502 2.97787502 8.0213122 4.83333878 8 6.6875 C7.99097656 7.69941406 7.98195313 8.71132813 7.97265625 9.75390625 C7.96105469 10.53636719 7.94945312 11.31882812 7.9375 12.125 C7.31101562 12.17398438 6.68453125 12.22296875 6.0390625 12.2734375 C5.22179687 12.34820312 4.40453125 12.42296875 3.5625 12.5 C2.75039063 12.56960937 1.93828125 12.63921875 1.1015625 12.7109375 C-1.26584191 12.95392588 -1.26584191 12.95392588 -3.0625 15.125 C-3.36970512 17.8666608 -3.57313924 20.50154769 -3.6875 23.25 C-3.81125 25.84875 -3.935 28.4475 -4.0625 31.125 C5.1775 31.125 14.4175 31.125 23.9375 31.125 C26.92240904 37.69179988 29.79479698 44.06878934 32.25 50.8125 C32.51361328 51.52599609 32.77722656 52.23949219 33.04882812 52.97460938 C33.68204772 54.69005883 34.31034372 56.40732457 34.9375 58.125 C38.20375622 51.17336619 41.18607302 44.14608006 43.96923828 36.98999023 C45.8358119 32.2266881 45.8358119 32.2266881 46.9375 31.125 C49.63404854 31.05180379 52.30441458 31.03257463 55 31.0625 C55.75861328 31.06701172 56.51722656 31.07152344 57.29882812 31.07617188 C59.17841871 31.0879932 61.05796899 31.10592922 62.9375 31.125 C60.60724768 36.99477449 58.14255333 42.80658942 55.6875 48.625 C55.22214844 49.73359375 54.75679688 50.8421875 54.27734375 51.984375 C51.46675094 58.64307972 48.52323723 65.22113324 45.47265625 71.77294922 C42.72226228 77.77850093 40.14904585 83.86014933 37.5625 89.9375 C37.01189183 91.22728745 36.4611113 92.51700132 35.91015625 93.80664062 C34.5842544 96.91204233 33.26063415 100.01841804 31.9375 103.125 C26.6575 103.125 21.3775 103.125 15.9375 103.125 C16.84781999 98.57340005 18.24814931 95.21162279 20.375 91.1875 C25.41163194 81.65853266 25.41163194 81.65853266 24.9375 71.125 C23.92314283 68.62728181 22.88479054 66.27714689 21.6875 63.875 C21.049015 62.55230729 20.41099712 61.229389 19.7734375 59.90625 C19.45987305 59.26300781 19.14630859 58.61976562 18.82324219 57.95703125 C17.61048283 55.44861167 16.4582491 52.91462221 15.3125 50.375 C14.92449219 49.51777344 14.53648437 48.66054687 14.13671875 47.77734375 C13.74097656 46.90207031 13.34523438 46.02679688 12.9375 45.125 C12.00038902 43.06232322 11.06289586 40.99982002 10.125 38.9375 C9.39583333 37.33333333 8.66666667 35.72916667 7.9375 34.125 C7.6075 36.765 7.2775 39.405 6.9375 42.125 C3.3075 42.125 -0.3225 42.125 -4.0625 42.125 C-4.0625 54.335 -4.0625 66.545 -4.0625 79.125 C-9.0125 79.125 -13.9625 79.125 -19.0625 79.125 C-19.0625 66.915 -19.0625 54.705 -19.0625 42.125 C-21.7025 42.125 -24.3425 42.125 -27.0625 42.125 C-27.0625 38.495 -27.0625 34.865 -27.0625 31.125 C-24.4225 31.125 -21.7825 31.125 -19.0625 31.125 C-19.09730469 29.97902344 -19.13210938 28.83304688 -19.16796875 27.65234375 C-19.19612703 26.12241061 -19.22342499 24.59246146 -19.25 23.0625 C-19.27513672 22.31033203 -19.30027344 21.55816406 -19.32617188 20.78320312 C-19.40556036 14.67028962 -18.53085947 9.88472484 -14.30859375 5.1640625 C-13.71175781 4.69742187 -13.11492187 4.23078125 -12.5 3.75 C-11.90058594 3.26789062 -11.30117188 2.78578125 -10.68359375 2.2890625 C-7.12168846 -0.26864299 -4.3454154 -0.00884113 0 0 Z " fill="#404AD4" transform="translate(453.0625,20.875)"/>
<path d="M0 0 C4.95 0 9.9 0 15 0 C15.49886719 1.16789062 15.99773438 2.33578125 16.51171875 3.5390625 C20.34639836 12.50547249 24.1971862 21.46448515 28.08575439 30.40766907 C37.54604432 52.16650685 37.54604432 52.16650685 41.3125 61.1875 C41.59625488 61.85749023 41.88000977 62.52748047 42.17236328 63.21777344 C43.32090325 66.00017292 44 67.95310302 44 71 C38.39 71 32.78 71 27 71 C23 59.375 23 59.375 23 56 C13.1 56.33 3.2 56.66 -7 57 C-9.81926134 63.89676554 -9.81926134 63.89676554 -12 71 C-17.61 71 -23.22 71 -29 71 C-26.47842641 62.79785544 -23.14810339 54.97260046 -19.81872559 47.07452393 C-18.12381592 43.05376558 -16.43861565 39.02894709 -14.75390625 35.00390625 C-14.42502411 34.21860535 -14.09614197 33.43330444 -13.7572937 32.62420654 C-10.87097901 25.71929642 -8.06808751 18.78301982 -5.34692383 11.8112793 C-3.74302148 7.72874725 -1.97251401 3.94502802 0 0 Z " fill="#404BD5" transform="translate(543,29)"/>
<path d="M0 0 C2.12011219 1.43107573 3.84013637 2.75099243 5.5 4.6875 C8.03518149 3.47061288 10.13918676 2.22510957 12.4375 0.5625 C17.74832349 -2.45267721 23.60823004 -2.25176767 29.5 -1.3125 C34.17453464 0.63744874 37.4162192 2.93645804 40.09448242 7.26367188 C41.8320165 11.49628919 41.88284274 14.84928771 41.79296875 19.3671875 C41.78872391 20.17995148 41.78447906 20.99271545 41.78010559 21.83010864 C41.76340804 24.40791959 41.72577362 26.9849282 41.6875 29.5625 C41.67244158 31.31769699 41.6587552 33.07290631 41.64648438 34.828125 C41.61353392 39.11488913 41.56181453 43.40105886 41.5 47.6875 C36.55 47.6875 31.6 47.6875 26.5 47.6875 C26.45101562 45.49609375 26.40203125 43.3046875 26.3515625 41.046875 C26.29751398 38.91871458 26.24022184 36.79066443 26.18261719 34.66259766 C26.14439334 33.18644464 26.10952897 31.71020057 26.078125 30.23388672 C26.03233014 28.10871906 25.97436163 25.98417458 25.9140625 23.859375 C25.8826416 22.5815918 25.8512207 21.30380859 25.81884766 19.98730469 C25.52537677 16.95012819 25.20976651 15.17937353 23.5 12.6875 C21.50264015 11.80127167 21.50264015 11.80127167 19.1875 11.625 C18.42824219 11.51027344 17.66898437 11.39554688 16.88671875 11.27734375 C13.18370414 11.91370469 11.83921727 13.82702596 9.5 16.6875 C8.72580993 20.15254717 8.72580993 20.15254717 8.79296875 23.95703125 C8.77784744 24.63803391 8.76272614 25.31903656 8.74714661 26.02067566 C8.70439922 28.18079063 8.69544565 30.33950493 8.6875 32.5 C8.66434511 33.97074002 8.63897769 35.44144698 8.61132812 36.91210938 C8.54446168 40.50466091 8.52338001 44.09335456 8.5 47.6875 C3.55 47.6875 -1.4 47.6875 -6.5 47.6875 C-6.54898438 45.57988281 -6.59796875 43.47226563 -6.6484375 41.30078125 C-6.70252219 39.24871009 -6.75980006 37.19675103 -6.81738281 35.14477539 C-6.85555149 33.7239627 -6.89042513 32.30305737 -6.921875 30.88208008 C-6.96779065 28.83381145 -7.02573805 26.78617392 -7.0859375 24.73828125 C-7.1173584 23.50762939 -7.1487793 22.27697754 -7.18115234 21.0090332 C-7.48595035 17.83385945 -8.14442201 15.55323943 -9.5 12.6875 C-10.88864434 12.38193774 -12.28681264 12.11949192 -13.6875 11.875 C-14.46480469 11.72417969 -15.24210937 11.57335938 -16.04296875 11.41796875 C-19.86107501 11.83680712 -21.12606018 13.77050205 -23.5 16.6875 C-24.27419007 20.15254717 -24.27419007 20.15254717 -24.20703125 23.95703125 C-24.22215256 24.63803391 -24.23727386 25.31903656 -24.25285339 26.02067566 C-24.29560078 28.18079063 -24.30455435 30.33950493 -24.3125 32.5 C-24.33565489 33.97074002 -24.36102231 35.44144698 -24.38867188 36.91210938 C-24.45553832 40.50466091 -24.47661999 44.09335456 -24.5 47.6875 C-29.45 47.6875 -34.4 47.6875 -39.5 47.6875 C-39.5 31.8475 -39.5 16.0075 -39.5 -0.3125 C-34.55 -0.3125 -29.6 -0.3125 -24.5 -0.3125 C-24.5 1.3375 -24.5 2.9875 -24.5 4.6875 C-24.02949219 4.33816406 -23.55898438 3.98882812 -23.07421875 3.62890625 C-22.45160156 3.17386719 -21.82898438 2.71882813 -21.1875 2.25 C-20.57261719 1.79753906 -19.95773437 1.34507813 -19.32421875 0.87890625 C-13.77202113 -2.74726136 -5.97758156 -2.24159308 0 0 Z " fill="#404AD2" transform="translate(353.5,52.3125)"/>
<path d="M0 0 C8.91 -0.12375 8.91 -0.12375 18 -0.25 C19.85882813 -0.28641602 21.71765625 -0.32283203 23.6328125 -0.36035156 C25.13019664 -0.37204988 26.62759365 -0.38223899 28.125 -0.390625 C29.26195312 -0.4213208 29.26195312 -0.4213208 30.421875 -0.45263672 C36.95430747 -0.45684576 42.09645943 1.48763852 47.05859375 5.78125 C47.74115234 6.63203125 47.74115234 6.63203125 48.4375 7.5 C48.91058594 8.0671875 49.38367188 8.634375 49.87109375 9.21875 C53.44343322 14.85538251 52.5129268 22.63115884 52 29 C50.47301119 34.42744937 47.76591588 37.93619694 43 41 C42.19046875 41.5259375 41.3809375 42.051875 40.546875 42.59375 C35.5314103 44.58226023 30.95957855 44.32068767 25.625 44.1875 C20.365625 44.0946875 20.365625 44.0946875 15 44 C15 52.58 15 61.16 15 70 C10.05 70 5.1 70 0 70 C0 46.9 0 23.8 0 0 Z " fill="#3B45D2" transform="translate(144,30)"/>
<path d="M0 0 C0.515625 0.28875 1.03125 0.5775 1.5625 0.875 C0.94795304 4.86955527 -1.14396737 7.61966336 -3.4375 10.875 C-4.22125 10.545 -5.005 10.215 -5.8125 9.875 C-10.43111869 8.60089829 -14.67999356 8.70576064 -19.4375 8.875 C-19.4375 10.195 -19.4375 11.515 -19.4375 12.875 C-18.2825 13.308125 -17.1275 13.74125 -15.9375 14.1875 C-15.20660156 14.4659375 -14.47570312 14.744375 -13.72265625 15.03125 C-12.28335495 15.56268433 -10.83340125 16.06684989 -9.37109375 16.53125 C-4.26894741 18.20866797 0.36705375 20.40137525 3.5625 24.875 C4.64292978 29.24369433 3.90320836 32.85287493 2.5 37.0625 C-0.21675972 41.00618347 -3.62934977 44.85993271 -8.2421875 46.52734375 C-17.86677614 48.05152238 -27.7264662 47.63592469 -36 42.1875 C-36.474375 41.754375 -36.94875 41.32125 -37.4375 40.875 C-36.0677836 36.87999382 -34.18027578 34.07490508 -31.4375 30.875 C-27.4375 32.875 -27.4375 32.875 -25.5859375 33.93359375 C-23.15075561 35.00064618 -21.45770108 35.11115754 -18.8125 35.0625 C-17.64847656 35.05283203 -17.64847656 35.05283203 -16.4609375 35.04296875 C-14.3687732 34.99550633 -14.3687732 34.99550633 -12.4375 33.875 C-12.4375 32.225 -12.4375 30.575 -12.4375 28.875 C-13.43910156 28.58367187 -14.44070313 28.29234375 -15.47265625 27.9921875 C-22.97562386 25.71473637 -29.00755284 23.82208499 -34.4375 17.875 C-35.70232285 14.08053145 -36.29217125 10.78703183 -35.4375 6.875 C-27.59513856 -5.73905178 -12.57506214 -5.80387483 0 0 Z " fill="#404AD2" transform="translate(303.4375,54.125)"/>
<path d="M0 0 C5.28 0 10.56 0 16 0 C16 23.43 16 46.86 16 71 C10.72 71 5.44 71 0 71 C0 47.57 0 24.14 0 0 Z " fill="#414AD4" transform="translate(594,29)"/>
<path d="M0 0 C0 4.62 0 9.24 0 14 C-1.69125 13.9175 -3.3825 13.835 -5.125 13.75 C-10.47879905 13.74310077 -13.0684146 14.37880292 -17 18 C-18.1007076 21.3021228 -18.20627072 23.94083279 -18.31640625 27.41796875 C-18.35830078 28.67158203 -18.40019531 29.92519531 -18.44335938 31.21679688 C-18.48267578 32.52712891 -18.52199219 33.83746094 -18.5625 35.1875 C-18.60570992 36.52279978 -18.649325 37.85808652 -18.69335938 39.19335938 C-18.79956434 42.46211234 -18.90029785 45.73104223 -19 49 C-23.95 49 -28.9 49 -34 49 C-34 33.16 -34 17.32 -34 1 C-29.05 1 -24.1 1 -19 1 C-18.67 2.98 -18.34 4.96 -18 7 C-17.51789063 6.57847656 -17.03578125 6.15695313 -16.5390625 5.72265625 C-15.90742188 5.17480469 -15.27578125 4.62695312 -14.625 4.0625 C-13.68527344 3.24458984 -13.68527344 3.24458984 -12.7265625 2.41015625 C-8.72238653 -0.86022277 -5.00776845 -0.07153955 0 0 Z " fill="#424CD1" transform="translate(238,51)"/>
<path d="M0 0 C1.57682517 1.34903696 3.15227062 2.69970185 4.72314453 4.05566406 C6.34844994 5.44360447 7.98927829 6.81345132 9.64013672 8.17089844 C29.15521012 24.45959537 29.15521012 24.45959537 30.43359375 34.78125 C30.60422004 40.59616008 30.07588756 46.28651042 29 52 C27.42317483 50.65096304 25.84772938 49.30029815 24.27685547 47.94433594 C22.65155006 46.55639553 21.01072171 45.18654868 19.35986328 43.82910156 C-0.15521012 27.54040463 -0.15521012 27.54040463 -1.43359375 17.21875 C-1.60422004 11.40383992 -1.07588756 5.71348958 0 0 Z " fill="#414BD6" transform="translate(67,70)"/>
<path d="M0 0 C2.03774666 8.06589394 2.85040285 16.06056983 0 24 C-6.94697895 34.86156012 -18.08439324 43.91092864 -28 52 C-28.33 52 -28.66 52 -29 52 C-31.03774666 43.93410606 -31.85040285 35.93943017 -29 28 C-24.94815393 21.66496286 -7.89483331 0 0 0 Z " fill="#404AD6" transform="translate(60,70)"/>
<path d="M0 0 C1.57682517 1.34903696 3.15227062 2.69970185 4.72314453 4.05566406 C6.34844994 5.44360447 7.98927829 6.81345132 9.64013672 8.17089844 C29.15521012 24.45959537 29.15521012 24.45959537 30.43359375 34.78125 C30.60422004 40.59616008 30.07588756 46.28651042 29 52 C27.42317483 50.65096304 25.84772938 49.30029815 24.27685547 47.94433594 C22.65155006 46.55639553 21.01072171 45.18654868 19.35986328 43.82910156 C-0.15521012 27.54040463 -0.15521012 27.54040463 -1.43359375 17.21875 C-1.60422004 11.40383992 -1.07588756 5.71348958 0 0 Z " fill="#424CD5" transform="translate(31,5)"/>
<path d="M0 0 C2.03774666 8.06589394 2.85040285 16.06056983 0 24 C-6.94697895 34.86156012 -18.08439324 43.91092864 -28 52 C-28.33 52 -28.66 52 -29 52 C-31.03774666 43.93410606 -31.85040285 35.93943017 -29 28 C-24.94815393 21.66496286 -7.89483331 0 0 0 Z " fill="#3F49D4" transform="translate(96,5)"/>
<path d="M0 0 C1.61165039 0.03383789 1.61165039 0.03383789 3.25585938 0.06835938 C5.9011685 0.12714402 8.54361413 0.20926043 11.1875 0.3125 C6.76985706 10.4970762 -5.18347366 22.66926598 -14.8125 28.3125 C-23.03399094 30.88150576 -31.47181834 29.97212543 -39.8125 28.3125 C-38.87065039 27.20629953 -37.92773155 26.10100939 -36.984375 24.99609375 C-36.4594043 24.38048584 -35.93443359 23.76487793 -35.39355469 23.13061523 C-33.29546499 20.71794167 -31.17083668 18.47430862 -28.8125 16.3125 C-28.1525 16.3125 -27.4925 16.3125 -26.8125 16.3125 C-26.8125 15.6525 -26.8125 14.9925 -26.8125 14.3125 C-26.1525 14.3125 -25.4925 14.3125 -24.8125 14.3125 C-24.8125 13.6525 -24.8125 12.9925 -24.8125 12.3125 C-23.23828125 10.76171875 -23.23828125 10.76171875 -21.125 9 C-18.67156465 6.94391953 -16.71294442 5.17963159 -14.78125 2.6015625 C-10.16638687 -0.95673986 -5.64794588 -0.22426175 0 0 Z " fill="#404AD5" transform="translate(112.8125,31.6875)"/>
<path d="M0 0 C9.1012811 -1.71383092 19.09122067 -3.189358 27.19921875 2.07861328 C33.43408901 7.17436303 38.6586135 13.39136936 43.82910156 19.52880859 C46.34686823 22.39484933 48.99929523 24.66338563 52 27 C52 27.33 52 27.66 52 28 C43.40035427 29.9741502 32.97770278 31.71610673 25.08959961 26.81237793 C15.59010247 19.67057424 7.41821727 10.23645042 0 1 C0 0.67 0 0.34 0 0 Z " fill="#3E49D5" transform="translate(2,32)"/>
<path d="M0 0 C8.05305833 -1.94430009 16.07308451 -2.77969225 24 0 C34.50723916 6.63130808 43.24557111 17.41797352 51 27 C51 27.33 51 27.66 51 28 C42.94694167 29.94430009 34.92691549 30.77969225 27 28 C16.49276084 21.36869192 7.75442889 10.58202648 0 1 C0 0.67 0 0.34 0 0 Z " fill="#404BD6" transform="translate(73,67)"/>
<path d="M0 0 C4.62 0 9.24 0 14 0 C14 15.84 14 31.68 14 48 C9.38 48 4.76 48 0 48 C0 32.16 0 16.32 0 0 Z " fill="#3D46D2" transform="translate(406,52)"/>
<path d="M0 0 C4.62 0 9.24 0 14 0 C14 15.84 14 31.68 14 48 C9.38 48 4.76 48 0 48 C0 32.16 0 16.32 0 0 Z " fill="#3C47D1" transform="translate(245,52)"/>
<path d="M0 0 C1.67642578 0.04737305 1.67642578 0.04737305 3.38671875 0.09570312 C6.13552572 0.17793239 8.87889136 0.29278383 11.625 0.4375 C10.2200955 3.66265663 8.57374814 5.67304082 5.9921875 8.046875 C5.26773438 8.71976563 4.54328125 9.39265625 3.796875 10.0859375 C3.03890625 10.77945313 2.2809375 11.47296875 1.5 12.1875 C0.01703089 13.5559943 -1.46474335 14.92578456 -2.9453125 16.296875 C-3.69006836 16.97234375 -4.43482422 17.6478125 -5.20214844 18.34375 C-7.40947093 20.39431194 -7.40947093 20.39431194 -9.27441406 22.71875 C-12.04714843 25.97841062 -13.97970552 28.13280503 -18.25048828 29.06542969 C-21.49673253 29.22314603 -24.63175131 29.13923317 -27.875 28.9375 C-28.98359375 28.90140625 -30.0921875 28.8653125 -31.234375 28.828125 C-33.95157034 28.73442861 -36.66141941 28.6034292 -39.375 28.4375 C-34.61658042 22.68039977 -29.47099897 17.69206069 -23.94140625 12.6875 C-23.31105469 12.11 -22.68070313 11.5325 -22.03125 10.9375 C-21.40428223 10.36845947 -20.77731445 9.79941895 -20.13134766 9.21313477 C-18.37046507 7.43291527 -17.09405645 5.58586268 -15.6796875 3.52734375 C-11.59009903 -1.37824242 -5.88443525 -0.31536137 0 0 Z " fill="#3F4AD5" transform="translate(41.375,66.5625)"/>
<path d="M0 0 C3.526875 -0.12375 3.526875 -0.12375 7.125 -0.25 C7.85348145 -0.28641602 8.58196289 -0.32283203 9.33251953 -0.36035156 C14.38684642 -0.44534431 17.13672548 0.82953155 21 4 C22.59500497 7.19000995 22.37880152 10.52880059 22 14 C20.6155904 16.76881921 19.58779404 17.7018436 16.84375 19.09375 C13.33847929 20.21081429 10.35954949 20.19363644 6.6875 20.125 C3.3771875 20.063125 3.3771875 20.063125 0 20 C0 13.4 0 6.8 0 0 Z " fill="#F3F4FB" transform="translate(159,42)"/>
<path d="M0 0 C2 1 2 1 2.76196289 2.68652344 C2.9964917 3.40356445 3.23102051 4.12060547 3.47265625 4.859375 C3.86227539 6.03886719 3.86227539 6.03886719 4.25976562 7.2421875 C4.52466797 8.06976563 4.78957031 8.89734375 5.0625 9.75 C5.33126953 10.56210937 5.60003906 11.37421875 5.87695312 12.2109375 C7.16755124 16.16319308 8.17988934 19.8994467 9 24 C3.06 24 -2.88 24 -9 24 C-3.0625 3.0625 -3.0625 3.0625 0 0 Z " fill="#EEEFF9" transform="translate(550,48)"/>
<path d="M0 0 C2.9375 2.0625 2.9375 2.0625 5 5 C5.62491523 8.95779649 5.61006839 11.00863886 3.5 14.4375 C0.01854786 16.61340759 -3.06150081 16.61612166 -7 16 C-10 15 -10 15 -12 13 C-12.79961609 8.04238024 -12.79078066 6.15022641 -9.9375 2 C-6.22192774 -0.52975133 -4.4117517 -0.7878128 0 0 Z " fill="#464FD4" transform="translate(416,28)"/>
<path d="M0 0 C2.5 1 2.5 1 4 3 C4.55302077 7.35503854 4.74510377 9.70416736 2.5625 13.5 C-1.23547424 15.72320444 -4.70759511 15.78856681 -9 15 C-11.0625 13.4375 -11.0625 13.4375 -12 11 C-12.48505011 7.11959911 -12.56851618 4.9238388 -10.5 1.5625 C-6.96267272 -0.64832955 -4.0629582 -0.65773299 0 0 Z " fill="#3E48D2" transform="translate(256,29)"/>
<path d="M0 0 C0.99 0.33 1.98 0.66 3 1 C-1.2514393 5.99544118 -5.64540876 10.71464579 -10.3984375 15.23828125 C-12.94805908 18.04286499 -13.1233794 20.60350487 -13.09765625 24.23046875 C-13.09443359 25.03291016 -13.09121094 25.83535156 -13.08789062 26.66210938 C-13.07951172 27.49548828 -13.07113281 28.32886719 -13.0625 29.1875 C-13.05798828 30.03248047 -13.05347656 30.87746094 -13.04882812 31.74804688 C-13.03705403 33.83206155 -13.0191189 35.91603977 -13 38 C-13.99 38.495 -13.99 38.495 -15 39 C-17.39341239 19.24146017 -17.39341239 19.24146017 -13.52783203 12.39111328 C-9.65130648 7.56597913 -5.00316577 3.61931141 0 0 Z " fill="#4D58D5" transform="translate(82,18)"/>
<path d="M0 0 C0 0.33 0 0.66 0 1 C-1.36125 1.37125 -1.36125 1.37125 -2.75 1.75 C-6.27783177 3.10685837 -7.695654 4.04077333 -10 7 C-10.64143328 10.28116076 -10.64143328 10.28116076 -10.609375 13.953125 C-10.62591125 14.61334656 -10.64244751 15.27356812 -10.65948486 15.95379639 C-10.70788451 18.05262626 -10.72931519 20.15073222 -10.75 22.25 C-10.77816683 23.6771196 -10.80809528 25.10420559 -10.83984375 26.53125 C-10.91363763 30.02067609 -10.96326279 33.50996472 -11 37 C-11.33 37 -11.66 37 -12 37 C-12.0992011 32.67673967 -12.17162265 28.35408976 -12.21972656 24.0300293 C-12.23978825 22.56051079 -12.26704478 21.09107159 -12.30175781 19.62182617 C-12.35052141 17.50419513 -12.37302161 15.38762313 -12.390625 13.26953125 C-12.41157227 11.99698486 -12.43251953 10.72443848 -12.45410156 9.41333008 C-11.92319536 5.42268512 -10.81071513 3.82084207 -8 1 C-5.29120665 -0.35439668 -2.99066732 -0.06501451 0 0 Z " fill="#F3F4F6" transform="translate(374,63)"/>
<path d="M0 0 C-1.14544077 3.43632231 -2.2711508 4.33471585 -5 6.625 C-5.721875 7.23601562 -6.44375 7.84703125 -7.1875 8.4765625 C-7.785625 8.97929688 -8.38375 9.48203125 -9 10 C-10.23921211 11.01636977 -10.23921211 11.01636977 -10.11352539 13.13305664 C-10.10828857 14.04949951 -10.10305176 14.96594238 -10.09765625 15.91015625 C-10.09443359 16.89951172 -10.09121094 17.88886719 -10.08789062 18.90820312 C-10.07951172 19.94912109 -10.07113281 20.99003906 -10.0625 22.0625 C-10.05798828 23.10728516 -10.05347656 24.15207031 -10.04882812 25.22851562 C-10.03699913 27.8190666 -10.02051689 30.40950559 -10 33 C-10.99 33.495 -10.99 33.495 -12 34 C-13.73365363 11.66520694 -13.73365363 11.66520694 -9.84375 6.1796875 C-3.57397959 0 -3.57397959 0 0 0 Z " fill="#434CCE" transform="translate(43,88)"/>
<path d="M0 0 C0.99 0.33 1.98 0.66 3 1 C2.01 2.32 1.02 3.64 0 5 C6.27 5 12.54 5 19 5 C19 5.33 19 5.66 19 6 C11.08 6 3.16 6 -5 6 C-3.35 4.02 -1.7 2.04 0 0 Z " fill="#4F5BD3" transform="translate(7,89)"/>
<path d="M0 0 C1.65 1.65 3.3 3.3 5 5 C3.68 5 2.36 5 1 5 C1 11.27 1 17.54 1 24 C0.67 24 0.34 24 0 24 C0 16.08 0 8.16 0 0 Z " fill="#5359D4" transform="translate(67,70)"/>
<path d="M0 0 C1.32 1.32 2.64 2.64 4 4 C3.01 4.495 3.01 4.495 2 5 C1.67 11.27 1.34 17.54 1 24 C0.67 24 0.34 24 0 24 C0 16.08 0 8.16 0 0 Z " fill="#5158D0" transform="translate(31,5)"/>
<path d="M0 0 C-1.875 3.875 -1.875 3.875 -3 5 C-3.23527773 7.34987262 -3.41386417 9.70556039 -3.5625 12.0625 C-3.64628906 13.35285156 -3.73007812 14.64320312 -3.81640625 15.97265625 C-3.87699219 16.97167969 -3.93757813 17.97070312 -4 19 C-4.33 19 -4.66 19 -5 19 C-5.0809313 16.39521117 -5.14045434 13.79293347 -5.1875 11.1875 C-5.22520508 10.08051758 -5.22520508 10.08051758 -5.26367188 8.95117188 C-5.33780469 3.49005469 -5.33780469 3.49005469 -3.61328125 0.98828125 C-2 0 -2 0 0 0 Z " fill="#D4D6EF" transform="translate(454,33)"/>
<path d="M0 0 C-1.12915504 3.38746512 -2.22743073 4.37451366 -4.875 6.6875 C-5.57367188 7.31011719 -6.27234375 7.93273437 -6.9921875 8.57421875 C-9 10 -9 10 -12 10 C-10.38113585 8.32737283 -8.7547271 6.66204463 -7.125 5 C-6.22007813 4.071875 -5.31515625 3.14375 -4.3828125 2.1875 C-2 0 -2 0 0 0 Z " fill="#5260D6" transform="translate(43,88)"/>
<path d="M0 0 C0 0.33 0 0.66 0 1 C-1.36125 1.37125 -1.36125 1.37125 -2.75 1.75 C-7.35137322 3.51975893 -9.30698272 5.96047408 -12 10 C-11.70197895 6.52308771 -10.9882377 4.98487704 -8.8125 2.1875 C-5.54121494 -0.35683282 -4.03884885 -0.46963359 0 0 Z " fill="#D9D9F0" transform="translate(374,63)"/>
<path d="M0 0 C2.8290723 2.8290723 3.37611108 3.38144425 4 7 C3.01 6.67 2.02 6.34 1 6 C0.67 6.99 0.34 7.98 0 9 C0 6.03 0 3.06 0 0 Z " fill="#E4E6F5" transform="translate(460,54)"/>
<path d="M0 0 C0.66 0.33 1.32 0.66 2 1 C1.0409375 1.804375 1.0409375 1.804375 0.0625 2.625 C-2.38529404 5.44367193 -2.66714612 7.33860732 -3 11 C-3.33 11 -3.66 11 -4 11 C-4.49230769 4.6 -4.49230769 4.6 -2 1.5625 C-1.34 1.046875 -0.68 0.53125 0 0 Z " fill="#4E58D3" transform="translate(248,29)"/>
</svg>
